<mxfile host="app.diagrams.net" modified="2022-03-18T08:51:07.516Z" agent="5.0 (Windows NT 10.0; Win64; x64) AppleWebKit/537.36 (KHTML, like Gecko) Chrome/99.0.4844.51 Safari/537.36 Edg/99.0.1150.39" etag="91NDU3VFdPsbxv20JZKr" version="17.1.3" type="github">
  <diagram id="C5RBs43oDa-KdzZeNtuy" name="Page-1">
    <mxGraphModel dx="1897" dy="681" grid="1" gridSize="10" guides="1" tooltips="1" connect="1" arrows="1" fold="1" page="1" pageScale="1" pageWidth="827" pageHeight="1169" math="0" shadow="0">
      <root>
        <mxCell id="WIyWlLk6GJQsqaUBKTNV-0" />
        <mxCell id="WIyWlLk6GJQsqaUBKTNV-1" parent="WIyWlLk6GJQsqaUBKTNV-0" />
        <mxCell id="AxuAEFp41O1iY1T-BUaN-5" style="rounded=0;orthogonalLoop=1;jettySize=auto;html=1;exitX=0;exitY=0;exitDx=0;exitDy=0;entryX=1;entryY=0.5;entryDx=0;entryDy=0;" edge="1" parent="WIyWlLk6GJQsqaUBKTNV-1" source="AxuAEFp41O1iY1T-BUaN-4" target="AxuAEFp41O1iY1T-BUaN-1">
          <mxGeometry relative="1" as="geometry">
            <mxPoint x="520" y="190" as="targetPoint" />
          </mxGeometry>
        </mxCell>
        <mxCell id="AxuAEFp41O1iY1T-BUaN-43" style="edgeStyle=none;rounded=0;orthogonalLoop=1;jettySize=auto;html=1;exitX=0;exitY=0;exitDx=0;exitDy=0;entryX=1;entryY=0.5;entryDx=0;entryDy=0;" edge="1" parent="WIyWlLk6GJQsqaUBKTNV-1" source="AxuAEFp41O1iY1T-BUaN-0" target="AxuAEFp41O1iY1T-BUaN-37">
          <mxGeometry relative="1" as="geometry" />
        </mxCell>
        <mxCell id="AxuAEFp41O1iY1T-BUaN-0" value="溯源事件分析" style="ellipse;whiteSpace=wrap;html=1;" vertex="1" parent="WIyWlLk6GJQsqaUBKTNV-1">
          <mxGeometry x="160" y="260" width="140" height="80" as="geometry" />
        </mxCell>
        <mxCell id="AxuAEFp41O1iY1T-BUaN-1" value="分析规则" style="rounded=0;whiteSpace=wrap;html=1;" vertex="1" parent="WIyWlLk6GJQsqaUBKTNV-1">
          <mxGeometry x="400" y="147" width="120" height="30" as="geometry" />
        </mxCell>
        <mxCell id="AxuAEFp41O1iY1T-BUaN-2" value="" style="endArrow=none;html=1;rounded=0;" edge="1" parent="WIyWlLk6GJQsqaUBKTNV-1">
          <mxGeometry width="50" height="50" relative="1" as="geometry">
            <mxPoint x="400" y="181" as="sourcePoint" />
            <mxPoint x="520" y="181" as="targetPoint" />
          </mxGeometry>
        </mxCell>
        <mxCell id="AxuAEFp41O1iY1T-BUaN-3" value="" style="endArrow=none;html=1;rounded=0;" edge="1" parent="WIyWlLk6GJQsqaUBKTNV-1">
          <mxGeometry width="50" height="50" relative="1" as="geometry">
            <mxPoint x="400" y="187" as="sourcePoint" />
            <mxPoint x="520" y="187" as="targetPoint" />
          </mxGeometry>
        </mxCell>
        <mxCell id="AxuAEFp41O1iY1T-BUaN-20" style="edgeStyle=none;rounded=0;orthogonalLoop=1;jettySize=auto;html=1;exitX=0;exitY=0.5;exitDx=0;exitDy=0;entryX=1;entryY=0.5;entryDx=0;entryDy=0;" edge="1" parent="WIyWlLk6GJQsqaUBKTNV-1" source="AxuAEFp41O1iY1T-BUaN-40" target="AxuAEFp41O1iY1T-BUaN-17">
          <mxGeometry relative="1" as="geometry" />
        </mxCell>
        <mxCell id="AxuAEFp41O1iY1T-BUaN-4" value="关联分析管理" style="ellipse;whiteSpace=wrap;html=1;" vertex="1" parent="WIyWlLk6GJQsqaUBKTNV-1">
          <mxGeometry x="630" y="170" width="140" height="80" as="geometry" />
        </mxCell>
        <mxCell id="AxuAEFp41O1iY1T-BUaN-6" style="rounded=0;orthogonalLoop=1;jettySize=auto;html=1;entryX=1;entryY=0;entryDx=0;entryDy=0;exitX=0;exitY=0.5;exitDx=0;exitDy=0;" edge="1" parent="WIyWlLk6GJQsqaUBKTNV-1" source="AxuAEFp41O1iY1T-BUaN-1" target="AxuAEFp41O1iY1T-BUaN-0">
          <mxGeometry relative="1" as="geometry">
            <mxPoint x="530" y="200" as="targetPoint" />
            <mxPoint x="400" y="190" as="sourcePoint" />
          </mxGeometry>
        </mxCell>
        <mxCell id="AxuAEFp41O1iY1T-BUaN-16" style="edgeStyle=none;rounded=0;orthogonalLoop=1;jettySize=auto;html=1;exitX=0;exitY=0.5;exitDx=0;exitDy=0;" edge="1" parent="WIyWlLk6GJQsqaUBKTNV-1" source="AxuAEFp41O1iY1T-BUaN-8" target="AxuAEFp41O1iY1T-BUaN-0">
          <mxGeometry relative="1" as="geometry" />
        </mxCell>
        <mxCell id="AxuAEFp41O1iY1T-BUaN-8" value="分析任务" style="rounded=0;whiteSpace=wrap;html=1;" vertex="1" parent="WIyWlLk6GJQsqaUBKTNV-1">
          <mxGeometry x="400" y="240" width="120" height="30" as="geometry" />
        </mxCell>
        <mxCell id="AxuAEFp41O1iY1T-BUaN-9" value="" style="endArrow=none;html=1;rounded=0;" edge="1" parent="WIyWlLk6GJQsqaUBKTNV-1">
          <mxGeometry width="50" height="50" relative="1" as="geometry">
            <mxPoint x="400" y="274" as="sourcePoint" />
            <mxPoint x="520" y="274" as="targetPoint" />
          </mxGeometry>
        </mxCell>
        <mxCell id="AxuAEFp41O1iY1T-BUaN-10" value="" style="endArrow=none;html=1;rounded=0;" edge="1" parent="WIyWlLk6GJQsqaUBKTNV-1">
          <mxGeometry width="50" height="50" relative="1" as="geometry">
            <mxPoint x="400" y="280" as="sourcePoint" />
            <mxPoint x="520" y="280" as="targetPoint" />
          </mxGeometry>
        </mxCell>
        <mxCell id="AxuAEFp41O1iY1T-BUaN-15" style="edgeStyle=none;rounded=0;orthogonalLoop=1;jettySize=auto;html=1;exitX=0;exitY=1;exitDx=0;exitDy=0;entryX=1;entryY=0.5;entryDx=0;entryDy=0;" edge="1" parent="WIyWlLk6GJQsqaUBKTNV-1" source="AxuAEFp41O1iY1T-BUaN-4" target="AxuAEFp41O1iY1T-BUaN-8">
          <mxGeometry relative="1" as="geometry">
            <mxPoint x="530" y="290" as="targetPoint" />
            <mxPoint x="580" y="310" as="sourcePoint" />
            <Array as="points" />
          </mxGeometry>
        </mxCell>
        <mxCell id="AxuAEFp41O1iY1T-BUaN-21" style="edgeStyle=none;rounded=0;orthogonalLoop=1;jettySize=auto;html=1;exitX=0;exitY=0.5;exitDx=0;exitDy=0;entryX=0.974;entryY=0.672;entryDx=0;entryDy=0;entryPerimeter=0;" edge="1" parent="WIyWlLk6GJQsqaUBKTNV-1" source="AxuAEFp41O1iY1T-BUaN-17" target="AxuAEFp41O1iY1T-BUaN-0">
          <mxGeometry relative="1" as="geometry" />
        </mxCell>
        <mxCell id="AxuAEFp41O1iY1T-BUaN-17" value="白名单" style="rounded=0;whiteSpace=wrap;html=1;" vertex="1" parent="WIyWlLk6GJQsqaUBKTNV-1">
          <mxGeometry x="400" y="340" width="120" height="30" as="geometry" />
        </mxCell>
        <mxCell id="AxuAEFp41O1iY1T-BUaN-18" value="" style="endArrow=none;html=1;rounded=0;" edge="1" parent="WIyWlLk6GJQsqaUBKTNV-1">
          <mxGeometry width="50" height="50" relative="1" as="geometry">
            <mxPoint x="400" y="374" as="sourcePoint" />
            <mxPoint x="520" y="374" as="targetPoint" />
          </mxGeometry>
        </mxCell>
        <mxCell id="AxuAEFp41O1iY1T-BUaN-19" value="" style="endArrow=none;html=1;rounded=0;" edge="1" parent="WIyWlLk6GJQsqaUBKTNV-1">
          <mxGeometry width="50" height="50" relative="1" as="geometry">
            <mxPoint x="400" y="380" as="sourcePoint" />
            <mxPoint x="520" y="380" as="targetPoint" />
          </mxGeometry>
        </mxCell>
        <mxCell id="AxuAEFp41O1iY1T-BUaN-25" style="edgeStyle=none;rounded=0;orthogonalLoop=1;jettySize=auto;html=1;entryX=1;entryY=1;entryDx=0;entryDy=0;exitX=0;exitY=0.5;exitDx=0;exitDy=0;" edge="1" parent="WIyWlLk6GJQsqaUBKTNV-1" source="AxuAEFp41O1iY1T-BUaN-22" target="AxuAEFp41O1iY1T-BUaN-0">
          <mxGeometry relative="1" as="geometry">
            <mxPoint x="460" y="400" as="targetPoint" />
          </mxGeometry>
        </mxCell>
        <mxCell id="AxuAEFp41O1iY1T-BUaN-22" value="安全信息" style="rounded=0;whiteSpace=wrap;html=1;" vertex="1" parent="WIyWlLk6GJQsqaUBKTNV-1">
          <mxGeometry x="400" y="440" width="120" height="30" as="geometry" />
        </mxCell>
        <mxCell id="AxuAEFp41O1iY1T-BUaN-23" value="" style="endArrow=none;html=1;rounded=0;" edge="1" parent="WIyWlLk6GJQsqaUBKTNV-1">
          <mxGeometry width="50" height="50" relative="1" as="geometry">
            <mxPoint x="400" y="474" as="sourcePoint" />
            <mxPoint x="520" y="474" as="targetPoint" />
          </mxGeometry>
        </mxCell>
        <mxCell id="AxuAEFp41O1iY1T-BUaN-24" value="" style="endArrow=none;html=1;rounded=0;" edge="1" parent="WIyWlLk6GJQsqaUBKTNV-1">
          <mxGeometry width="50" height="50" relative="1" as="geometry">
            <mxPoint x="400" y="480" as="sourcePoint" />
            <mxPoint x="520" y="480" as="targetPoint" />
          </mxGeometry>
        </mxCell>
        <mxCell id="AxuAEFp41O1iY1T-BUaN-29" style="edgeStyle=none;rounded=0;orthogonalLoop=1;jettySize=auto;html=1;exitX=0;exitY=0.5;exitDx=0;exitDy=0;entryX=1;entryY=0.5;entryDx=0;entryDy=0;" edge="1" parent="WIyWlLk6GJQsqaUBKTNV-1" source="AxuAEFp41O1iY1T-BUaN-41" target="AxuAEFp41O1iY1T-BUaN-22">
          <mxGeometry relative="1" as="geometry">
            <mxPoint x="660.5025253169415" y="338.284271247462" as="sourcePoint" />
            <mxPoint x="530" y="365" as="targetPoint" />
          </mxGeometry>
        </mxCell>
        <mxCell id="AxuAEFp41O1iY1T-BUaN-34" style="edgeStyle=none;rounded=0;orthogonalLoop=1;jettySize=auto;html=1;entryX=0;entryY=0.5;entryDx=0;entryDy=0;" edge="1" parent="WIyWlLk6GJQsqaUBKTNV-1" source="AxuAEFp41O1iY1T-BUaN-30" target="AxuAEFp41O1iY1T-BUaN-31">
          <mxGeometry relative="1" as="geometry" />
        </mxCell>
        <mxCell id="AxuAEFp41O1iY1T-BUaN-30" value="数据采集" style="ellipse;whiteSpace=wrap;html=1;" vertex="1" parent="WIyWlLk6GJQsqaUBKTNV-1">
          <mxGeometry x="-180" y="260" width="140" height="80" as="geometry" />
        </mxCell>
        <mxCell id="AxuAEFp41O1iY1T-BUaN-35" style="edgeStyle=none;rounded=0;orthogonalLoop=1;jettySize=auto;html=1;exitX=1;exitY=0.5;exitDx=0;exitDy=0;entryX=0;entryY=0.5;entryDx=0;entryDy=0;" edge="1" parent="WIyWlLk6GJQsqaUBKTNV-1" source="AxuAEFp41O1iY1T-BUaN-31" target="AxuAEFp41O1iY1T-BUaN-0">
          <mxGeometry relative="1" as="geometry" />
        </mxCell>
        <mxCell id="AxuAEFp41O1iY1T-BUaN-31" value="原始日志" style="rounded=0;whiteSpace=wrap;html=1;" vertex="1" parent="WIyWlLk6GJQsqaUBKTNV-1">
          <mxGeometry x="10" y="285" width="120" height="30" as="geometry" />
        </mxCell>
        <mxCell id="AxuAEFp41O1iY1T-BUaN-32" value="" style="endArrow=none;html=1;rounded=0;" edge="1" parent="WIyWlLk6GJQsqaUBKTNV-1">
          <mxGeometry width="50" height="50" relative="1" as="geometry">
            <mxPoint x="10" y="319" as="sourcePoint" />
            <mxPoint x="130" y="319" as="targetPoint" />
          </mxGeometry>
        </mxCell>
        <mxCell id="AxuAEFp41O1iY1T-BUaN-33" value="" style="endArrow=none;html=1;rounded=0;" edge="1" parent="WIyWlLk6GJQsqaUBKTNV-1">
          <mxGeometry width="50" height="50" relative="1" as="geometry">
            <mxPoint x="10" y="325.0000000000001" as="sourcePoint" />
            <mxPoint x="130" y="325.0000000000001" as="targetPoint" />
          </mxGeometry>
        </mxCell>
        <mxCell id="AxuAEFp41O1iY1T-BUaN-36" value="追踪溯源报告" style="ellipse;whiteSpace=wrap;html=1;" vertex="1" parent="WIyWlLk6GJQsqaUBKTNV-1">
          <mxGeometry x="-180" y="122" width="140" height="80" as="geometry" />
        </mxCell>
        <mxCell id="AxuAEFp41O1iY1T-BUaN-44" style="edgeStyle=none;rounded=0;orthogonalLoop=1;jettySize=auto;html=1;exitX=0;exitY=0.5;exitDx=0;exitDy=0;entryX=1;entryY=0.5;entryDx=0;entryDy=0;" edge="1" parent="WIyWlLk6GJQsqaUBKTNV-1" source="AxuAEFp41O1iY1T-BUaN-37" target="AxuAEFp41O1iY1T-BUaN-36">
          <mxGeometry relative="1" as="geometry" />
        </mxCell>
        <mxCell id="AxuAEFp41O1iY1T-BUaN-37" value="安全事件" style="rounded=0;whiteSpace=wrap;html=1;" vertex="1" parent="WIyWlLk6GJQsqaUBKTNV-1">
          <mxGeometry x="10" y="147" width="120" height="30" as="geometry" />
        </mxCell>
        <mxCell id="AxuAEFp41O1iY1T-BUaN-38" value="" style="endArrow=none;html=1;rounded=0;" edge="1" parent="WIyWlLk6GJQsqaUBKTNV-1">
          <mxGeometry width="50" height="50" relative="1" as="geometry">
            <mxPoint x="10" y="181" as="sourcePoint" />
            <mxPoint x="130" y="181" as="targetPoint" />
          </mxGeometry>
        </mxCell>
        <mxCell id="AxuAEFp41O1iY1T-BUaN-39" value="" style="endArrow=none;html=1;rounded=0;" edge="1" parent="WIyWlLk6GJQsqaUBKTNV-1">
          <mxGeometry width="50" height="50" relative="1" as="geometry">
            <mxPoint x="10" y="187.00000000000023" as="sourcePoint" />
            <mxPoint x="130" y="187.00000000000023" as="targetPoint" />
          </mxGeometry>
        </mxCell>
        <mxCell id="AxuAEFp41O1iY1T-BUaN-40" value="白名单" style="ellipse;whiteSpace=wrap;html=1;" vertex="1" parent="WIyWlLk6GJQsqaUBKTNV-1">
          <mxGeometry x="630" y="315" width="140" height="80" as="geometry" />
        </mxCell>
        <mxCell id="AxuAEFp41O1iY1T-BUaN-41" value="安全信息" style="ellipse;whiteSpace=wrap;html=1;" vertex="1" parent="WIyWlLk6GJQsqaUBKTNV-1">
          <mxGeometry x="630" y="415" width="140" height="80" as="geometry" />
        </mxCell>
        <mxCell id="AxuAEFp41O1iY1T-BUaN-52" style="edgeStyle=none;rounded=0;orthogonalLoop=1;jettySize=auto;html=1;exitX=1;exitY=0.5;exitDx=0;exitDy=0;entryX=0;entryY=0.5;entryDx=0;entryDy=0;" edge="1" parent="WIyWlLk6GJQsqaUBKTNV-1" source="AxuAEFp41O1iY1T-BUaN-46" target="AxuAEFp41O1iY1T-BUaN-49">
          <mxGeometry relative="1" as="geometry" />
        </mxCell>
        <mxCell id="AxuAEFp41O1iY1T-BUaN-46" value="智能深度分析检索" style="ellipse;whiteSpace=wrap;html=1;" vertex="1" parent="WIyWlLk6GJQsqaUBKTNV-1">
          <mxGeometry x="-180" y="403.75" width="140" height="80" as="geometry" />
        </mxCell>
        <mxCell id="AxuAEFp41O1iY1T-BUaN-53" style="edgeStyle=none;rounded=0;orthogonalLoop=1;jettySize=auto;html=1;exitX=1;exitY=0.5;exitDx=0;exitDy=0;entryX=0;entryY=1;entryDx=0;entryDy=0;" edge="1" parent="WIyWlLk6GJQsqaUBKTNV-1" source="AxuAEFp41O1iY1T-BUaN-49" target="AxuAEFp41O1iY1T-BUaN-0">
          <mxGeometry relative="1" as="geometry" />
        </mxCell>
        <mxCell id="AxuAEFp41O1iY1T-BUaN-49" value="情报&amp;amp;资产" style="rounded=0;whiteSpace=wrap;html=1;" vertex="1" parent="WIyWlLk6GJQsqaUBKTNV-1">
          <mxGeometry x="10" y="428.75" width="120" height="30" as="geometry" />
        </mxCell>
        <mxCell id="AxuAEFp41O1iY1T-BUaN-50" value="" style="endArrow=none;html=1;rounded=0;" edge="1" parent="WIyWlLk6GJQsqaUBKTNV-1">
          <mxGeometry width="50" height="50" relative="1" as="geometry">
            <mxPoint x="10" y="462.75" as="sourcePoint" />
            <mxPoint x="130" y="462.75" as="targetPoint" />
          </mxGeometry>
        </mxCell>
        <mxCell id="AxuAEFp41O1iY1T-BUaN-51" value="" style="endArrow=none;html=1;rounded=0;" edge="1" parent="WIyWlLk6GJQsqaUBKTNV-1">
          <mxGeometry width="50" height="50" relative="1" as="geometry">
            <mxPoint x="10" y="468.7500000000002" as="sourcePoint" />
            <mxPoint x="130" y="468.7500000000002" as="targetPoint" />
          </mxGeometry>
        </mxCell>
      </root>
    </mxGraphModel>
  </diagram>
</mxfile>
